<svg  data-name="Layer 1" xmlns="http://www.w3.org/2000/svg" width="37" height="27" viewBox="0 0 37 27"><defs><style>.clss-1{fill:#e07255;}.cls-2{fill:#345362;}.cls-3{fill:#f5eee5;}</style></defs><path class="clss-1" d="M3.61,7H11.5a0,0,0,0,1,0,0v8.84a0,0,0,0,1,0,0H3.61a2.13,2.13,0,0,1-2.13-2.13V9.14A2.13,2.13,0,0,1,3.61,7Z"/><path class="cls-2" d="M12.63,17H3.09A2.75,2.75,0,0,1,.35,14.24V8.62A2.74,2.74,0,0,1,3.09,5.88h9.54ZM3.09,8.15a.48.48,0,0,0-.48.47v5.62a.48.48,0,0,0,.48.48h7.28V8.15Z"/><path class="cls-3" d="M20.32,21.93l-8.68-6a.31.31,0,0,1-.14-.26V7.19a.32.32,0,0,1,.16-.27l8.75-5.13A1.38,1.38,0,0,1,22.49,3V20.79A1.39,1.39,0,0,1,20.32,21.93Z"/><path class="cls-2" d="M21.1,23.31a2.47,2.47,0,0,1-1.42-.45l-8.69-6a1.45,1.45,0,0,1-.62-1.19V7.19a1.46,1.46,0,0,1,.71-1.25L19.83.81A2.52,2.52,0,0,1,23.62,3V20.79a2.52,2.52,0,0,1-2.52,2.52ZM21,21a.23.23,0,0,0,.26,0,.23.23,0,0,0,.13-.22V3a.24.24,0,0,0-.12-.22.27.27,0,0,0-.25,0l-8.35,4.9v7.6ZM12.23,7.9Z"/><path class="clss-1" d="M26.65,11.91a4.22,4.22,0,0,0-4.16-4.23v8.46A4.22,4.22,0,0,0,26.65,11.91Z"/><path class="cls-2" d="M21.35,17.3V6.52l1.16,0a5.37,5.37,0,0,1,0,10.74Zm2.27-8.25v5.72a3.1,3.1,0,0,0,0-5.72Z"/><polygon class="clss-1" points="9.02 15.98 3.81 15.98 5.65 25.41 10.85 25.41 9.02 15.98"/><path class="cls-2" d="M12.23,26.54H4.71L2.44,14.85H10ZM6.58,24.27h2.9l-1.4-7.15H5.19Z"/><rect class="cls-2" x="28.84" y="10.18" width="7.81" height="3.45" rx="1.52"/><rect class="cls-2" x="27.09" y="16.6" width="7.81" height="3.45" rx="1.52" transform="translate(22.04 -16.55) rotate(45)"/><rect class="cls-2" x="27.09" y="3.77" width="7.81" height="3.45" rx="1.52" transform="translate(5.19 23.52) rotate(-45)"/></svg>